{"asset":{"generator":"3D Builder","version":"2.0"},"scene":0,"scenes":[{"nodes":[0]}],"nodes":[{"mesh":0,"matrix":[1,0,0,0,0,-1.1920928955078125E-7,-0.99999988079071045,0,0,0.99999988079071045,-1.1920928955078125E-7,0,0,0.012552397325634956,-1.4963625893926746E-9,1]}],"meshes":[{"primitives":[{"attributes":{"POSITION":0},"mode":4,"indices":55,"material":0},{"attributes":{"POSITION":1},"mode":4,"indices":56,"material":0},{"attributes":{"POSITION":2},"mode":4,"indices":57,"material":0},{"attributes":{"POSITION":3},"mode":4,"indices":58,"material":0},{"attributes":{"POSITION":4},"mode":4,"indices":59,"material":0},{"attributes":{"POSITION":5},"mode":4,"indices":60,"material":0},{"attributes":{"POSITION":6},"mode":4,"indices":61,"material":0},{"attributes":{"POSITION":7},"mode":4,"indices":62,"material":0},{"attributes":{"POSITION":8},"mode":4,"indices":63,"material":0},{"attributes":{"POSITION":9},"mode":4,"indices":64,"material":0},{"attributes":{"POSITION":10},"mode":4,"indices":65,"material":0},{"attributes":{"POSITION":11},"mode":4,"indices":66,"material":0},{"attributes":{"POSITION":12},"mode":4,"indices":67,"material":0},{"attributes":{"POSITION":13},"mode":4,"indices":68,"material":0},{"attributes":{"POSITION":14},"mode":4,"indices":69,"material":0},{"attributes":{"POSITION":15},"mode":4,"indices":70,"material":0},{"attributes":{"POSITION":16},"mode":4,"indices":71,"material":0},{"attributes":{"POSITION":17},"mode":4,"indices":72,"material":0},{"attributes":{"POSITION":18},"mode":4,"indices":73,"material":0},{"attributes":{"POSITION":19},"mode":4,"indices":74,"material":0},{"attributes":{"POSITION":20},"mode":4,"indices":75,"material":0},{"attributes":{"POSITION":21},"mode":4,"indices":76,"material":0},{"attributes":{"POSITION":22},"mode":4,"indices":77,"material":0},{"attributes":{"POSITION":23},"mode":4,"indices":78,"material":0},{"attributes":{"POSITION":24},"mode":4,"indices":79,"material":0},{"attributes":{"POSITION":25},"mode":4,"indices":80,"material":0},{"attributes":{"POSITION":26},"mode":4,"indices":81,"material":0},{"attributes":{"POSITION":27},"mode":4,"indices":82,"material":0},{"attributes":{"POSITION":28},"mode":4,"indices":83,"material":0},{"attributes":{"POSITION":29},"mode":4,"indices":84,"material":0},{"attributes":{"POSITION":30},"mode":4,"indices":85,"material":0},{"attributes":{"POSITION":31},"mode":4,"indices":86,"material":0},{"attributes":{"POSITION":32},"mode":4,"indices":87,"material":0},{"attributes":{"POSITION":33},"mode":4,"indices":88,"material":0},{"attributes":{"POSITION":34},"mode":4,"indices":89,"material":0},{"attributes":{"POSITION":35},"mode":4,"indices":90,"material":0},{"attributes":{"POSITION":36},"mode":4,"indices":91,"material":0},{"attributes":{"POSITION":37},"mode":4,"indices":92,"material":0},{"attributes":{"POSITION":38},"mode":4,"indices":93,"material":0},{"attributes":{"POSITION":39},"mode":4,"indices":94,"material":0},{"attributes":{"POSITION":40},"mode":4,"indices":95,"material":0},{"attributes":{"POSITION":41},"mode":4,"indices":96,"material":0},{"attributes":{"POSITION":42},"mode":4,"indices":97,"material":0},{"attributes":{"POSITION":43},"mode":4,"indices":98,"material":0},{"attributes":{"POSITION":44},"mode":4,"indices":99,"material":0},{"attributes":{"POSITION":45},"mode":4,"indices":100,"material":0},{"attributes":{"POSITION":46},"mode":4,"indices":101,"material":0},{"attributes":{"POSITION":47},"mode":4,"indices":102,"material":0},{"attributes":{"POSITION":48},"mode":4,"indices":103,"material":0},{"attributes":{"POSITION":49},"mode":4,"indices":104,"material":0},{"attributes":{"POSITION":50},"mode":4,"indices":105,"material":0},{"attributes":{"POSITION":51},"mode":4,"indices":106,"material":0},{"attributes":{"POSITION":52},"mode":4,"indices":107,"material":0},{"attributes":{"POSITION":53},"mode":4,"indices":108,"material":0},{"attributes":{"POSITION":54},"mode":4,"indices":109,"material":0}]}],"materials":[{"name":"Default","pbrMetallicRoughness":{"baseColorFactor":[0.50288659334182739,0.50288659334182739,0.50288659334182739,1],"metallicFactor":0,"roughnessFactor":1},"alphaMode":"OPAQUE"}],"accessors":[{"bufferView":0,"byteOffset":0,"count":15646,"componentType":5126,"type":"VEC3","min":[-0.015070798806846142,0.0027809301391243935,-0.012345399707555771],"max":[0.015070798806846142,0.081857003271579742,0.011861999519169331]},{"bufferView":0,"byteOffset":187752,"count":380,"componentType":5126,"type":"VEC3","min":[-0.014957900159060955,0.081756092607975,0.0087831495329737663],"max":[0.01498239953070879,0.081832505762577057,0.011837500147521496]},{"bufferView":0,"byteOffset":192312,"count":2875,"componentType":5126,"type":"VEC3","min":[-0.014958699233829975,0.016069799661636353,-0.01232369989156723],"max":[0.014958699233829975,0.081738501787185669,-0.011881599202752113]},{"bufferView":0,"byteOffset":226812,"count":472,"componentType":5126,"type":"VEC3","min":[-0.01438399963080883,0.018842799589037895,-0.01232369989156723],"max":[0.01438399963080883,0.020450398325920105,-0.012274999171495438]},{"bufferView":0,"byteOffset":232476,"count":3366,"componentType":5126,"type":"VEC3","min":[-0.013835400342941284,0.019391398876905441,-0.012354199774563313],"max":[0.013835400342941284,0.019901799038052559,-0.011731699109077454]},{"bufferView":0,"byteOffset":272868,"count":956,"componentType":5126,"type":"VEC3","min":[-0.01381940022110939,0.019407900050282478,-0.012069299817085266],"max":[0.01381940022110939,0.019885299727320671,-0.011687500402331352]},{"bufferView":0,"byteOffset":284340,"count":1684,"componentType":5126,"type":"VEC3","min":[-0.00088415597565472126,0.079850003123283386,-0.0123838996514678],"max":[0.00088415597565472126,0.081617496907711029,-0.011781100183725357]},{"bufferView":0,"byteOffset":304548,"count":12230,"componentType":5126,"type":"VEC3","min":[-0.013664199970662594,0.017613500356674194,0.010671599768102169],"max":[0.013664199970662594,0.08054940402507782,0.011925498954951763]},{"bufferView":0,"byteOffset":451308,"count":18976,"componentType":5126,"type":"VEC3","min":[-0.01323390007019043,0.018004799261689186,-0.010222598910331726],"max":[0.01323390007019043,0.080099999904632568,0.011121699586510658]},{"bufferView":0,"byteOffset":679020,"count":48,"componentType":5126,"type":"VEC3","min":[-0.010933400131762028,0.079907499253749847,-0.0077469497919082642],"max":[0.011755299754440784,0.079956196248531342,0.009273049421608448]},{"bufferView":0,"byteOffset":679596,"count":16,"componentType":5126,"type":"VEC3","min":[-0.00940620992332697,0.079907499253749847,-0.0097563993185758591],"max":[0.010228099301457405,0.079956196248531342,-0.0017186200711876154]},{"bufferView":0,"byteOffset":679788,"count":4908,"componentType":5126,"type":"VEC3","min":[-0.00054215197451412678,0.07226630300283432,-0.011450399644672871],"max":[0.00054215197451412678,0.074234701693058014,-0.010124100372195244]},{"bufferView":0,"byteOffset":738684,"count":4883,"componentType":5126,"type":"VEC3","min":[-0.015010599978268147,0.0028054499998688698,-0.012231199070811272],"max":[0.015010599978268147,0.016067801043391228,0.011801700107753277]},{"bufferView":0,"byteOffset":797280,"count":16,"componentType":5126,"type":"VEC3","min":[-0.014990500174462795,0.016067801043391228,0.011034099385142326],"max":[0.014990500174462795,0.016835398972034454,0.011801700107753277]},{"bufferView":0,"byteOffset":797472,"count":1320,"componentType":5126,"type":"VEC3","min":[-0.014972398988902569,0.0028359899297356606,0.0110380994156003],"max":[0.014972398988902569,0.016058100387454033,0.011801700107753277]},{"bufferView":0,"byteOffset":813312,"count":16,"componentType":5126,"type":"VEC3","min":[-0.013945499435067177,0.016067801043391228,-0.012231199070811272],"max":[0.013945499435067177,0.016835398972034454,-0.01146360021084547]},{"bufferView":0,"byteOffset":813504,"count":32,"componentType":5126,"type":"VEC3","min":[-0.013951599597930908,0.0028359899297356606,-0.012231199070811272],"max":[0.013951599597930908,0.016058100387454033,-0.01146360021084547]},{"bufferView":0,"byteOffset":813888,"count":3104,"componentType":5126,"type":"VEC3","min":[-0.014408700168132782,0.0020418600179255009,-0.012231199070811272],"max":[0.014408700168132782,0.0028054499998688698,0.011801700107753277]},{"bufferView":0,"byteOffset":851136,"count":32,"componentType":5126,"type":"VEC3","min":[-0.012599200010299683,0.0020378399640321732,-0.00821234006434679],"max":[0.012599200010299683,0.0028054499998688698,0.0077828401699662209]},{"bufferView":0,"byteOffset":851520,"count":24,"componentType":5126,"type":"VEC3","min":[0.013183999806642532,0.0038101698737591505,-0.0037915599532425404],"max":[0.013214499689638615,0.010240399278700352,0.003281689714640379]},{"bufferView":0,"byteOffset":851808,"count":1000,"componentType":5126,"type":"VEC3","min":[-0.0095364199951291084,0.0028054499998688698,-0.012231199070811272],"max":[0.0041109202429652214,0.003565019927918911,0.011801700107753277]},{"bufferView":0,"byteOffset":863808,"count":176,"componentType":5126,"type":"VEC3","min":[-0.014923700131475925,0.013646800071001053,0.011089999228715897],"max":[0.014923700131475925,0.016058100387454033,0.011753099970519543]},{"bufferView":0,"byteOffset":865920,"count":868,"componentType":5126,"type":"VEC3","min":[-0.014399699866771698,0.0019654999487102032,-0.012311600148677826],"max":[0.01441580057144165,0.0025683299172669649,-0.0098198996856808662]},{"bufferView":0,"byteOffset":876336,"count":506,"componentType":5126,"type":"VEC3","min":[-0.013362799771130085,0.016037199646234512,0.01109599880874157],"max":[0.013362799771130085,0.017876299098134041,0.011861999519169331]},{"bufferView":0,"byteOffset":882408,"count":10900,"componentType":5126,"type":"VEC3","min":[-0.013887300156056881,0.0019514299929141998,-0.011437498964369297],"max":[0.013887300156056881,0.0028355899266898632,0.011008000001311302]},{"bufferView":0,"byteOffset":1013208,"count":580,"componentType":5126,"type":"VEC3","min":[-0.014962299726903439,0.0028054499998688698,-0.01232369989156723],"max":[0.014962299726903439,0.015866799280047417,-0.011519900523126125]},{"bufferView":0,"byteOffset":1020168,"count":8576,"componentType":5126,"type":"VEC3","min":[-0.00076319702202454209,0.015381800010800362,-0.00880636926740408],"max":[0.00076319702202454209,0.018194999545812607,-0.0072791897691786289]},{"bufferView":0,"byteOffset":1123080,"count":1200,"componentType":5126,"type":"VEC3","min":[-0.014216799288988113,0.0014912700280547142,-0.011766699142754078],"max":[0.014216799288988113,0.0016037999885156751,0.011337200179696083]},{"bufferView":0,"byteOffset":1137480,"count":4804,"componentType":5126,"type":"VEC3","min":[-0.013023199513554573,0.0182156004011631,-0.010222598910331726],"max":[0.013023199513554573,0.0760875940322876,-0.008325669914484024]},{"bufferView":0,"byteOffset":1195128,"count":12006,"componentType":5126,"type":"VEC3","min":[-0.011524599976837635,0.079507596790790558,-0.0021293999161571264],"max":[0.011685299687087536,0.080789700150489807,0.0085807899013161659]},{"bufferView":0,"byteOffset":1339200,"count":764,"componentType":5126,"type":"VEC3","min":[-0.015051599591970444,0.081326499581336975,0.0093633895739912987],"max":[-0.012787499465048313,0.082291096448898315,0.013991700485348701]},{"bufferView":0,"byteOffset":1348368,"count":57100,"componentType":5126,"type":"VEC3","min":[-0.013023199513554573,0.01844869926571846,-0.0058540496975183487],"max":[0.013153200037777424,0.066635198891162872,0.00846926961094141]},{"bufferView":0,"byteOffset":2033568,"count":151030,"componentType":5126,"type":"VEC3","min":[-0.012672199867665768,0.01827319897711277,-0.0089455898851156235],"max":[0.01264679990708828,0.063354402780532837,0.011028300039470196]},{"bufferView":0,"byteOffset":3845928,"count":15580,"componentType":5126,"type":"VEC3","min":[-0.014851800166070461,-1.8626400560606271E-5,0.0093003697693347931],"max":[0.014867899008095264,0.0020109100732952356,0.011972099542617798]},{"bufferView":0,"byteOffset":4032888,"count":9381,"componentType":5126,"type":"VEC3","min":[-0.014741299673914909,0.00022250700567383319,0.0094104893505573273],"max":[0.014757399447262287,0.0021917598787695169,0.011861999519169331]},{"bufferView":0,"byteOffset":4145460,"count":7416,"componentType":5126,"type":"VEC3","min":[-0.015002499334514141,0.00055486999917775393,-0.012552399188280106],"max":[0.015018600039184093,0.0020418600179255009,-0.0095791500061750412]},{"bufferView":0,"byteOffset":4234452,"count":8687,"componentType":5126,"type":"VEC3","min":[0.013843799941241741,0.044456798583269119,0.012501799501478672],"max":[0.015322699211537838,0.053298398852348328,0.014283299446105957]},{"bufferView":0,"byteOffset":4338696,"count":2424,"componentType":5126,"type":"VEC3","min":[0.014780199155211449,0.020518701523542404,0.012630300596356392],"max":[0.015322699211537838,0.029103100299835205,0.01375959999859333]},{"bufferView":0,"byteOffset":4367784,"count":38922,"componentType":5126,"type":"VEC3","min":[-0.015046299435198307,0.0028598299250006676,0.011855799704790115],"max":[0.01509539969265461,0.081857003271579742,0.014482598751783371]},{"bufferView":0,"byteOffset":4834848,"count":28,"componentType":5126,"type":"VEC3","min":[-0.013559299521148205,0.0181977991014719,0.013087798841297626],"max":[0.013608399778604507,0.0803699940443039,0.0132082998752594]},{"bufferView":0,"byteOffset":4835184,"count":28,"componentType":5126,"type":"VEC3","min":[-0.013559299521148205,0.0037790797650814056,0.0099049592390656471],"max":[0.013608399778604507,0.015239699743688107,0.010025499388575554]},{"bufferView":0,"byteOffset":4835520,"count":11820,"componentType":5126,"type":"VEC3","min":[-0.013908999972045422,0.017848199233412743,0.012249799445271492],"max":[0.013957999646663666,0.080719694495201111,0.013154099695384502]},{"bufferView":0,"byteOffset":4977360,"count":26888,"componentType":5126,"type":"VEC3","min":[-0.015016200020909309,0.016741000115871429,0.0118410000577569],"max":[0.015065199695527554,0.081826895475387573,0.012464799918234348]},{"bufferView":0,"byteOffset":5300016,"count":4254,"componentType":5126,"type":"VEC3","min":[-0.015006099827587605,0.01642950065433979,0.012629599310457706],"max":[-0.012072299607098103,0.017221199348568916,0.013815199956297874]},{"bufferView":0,"byteOffset":5351064,"count":4182,"componentType":5126,"type":"VEC3","min":[-0.01508649904280901,0.081346593797206879,0.012629599310457706],"max":[-0.012152699753642082,0.0821382999420166,0.013815199956297874]},{"bufferView":0,"byteOffset":5401248,"count":1644,"componentType":5126,"type":"VEC3","min":[-0.014320899732410908,0.017741700634360313,0.012231800705194473],"max":[0.014369900338351727,0.08082619309425354,0.012472899630665779]},{"bufferView":0,"byteOffset":5420976,"count":738,"componentType":5126,"type":"VEC3","min":[-0.014162199571728706,0.017436200752854347,0.012231800705194473],"max":[0.014211200177669525,0.081131599843502045,0.012472899630665779]},{"bufferView":0,"byteOffset":5429832,"count":703,"componentType":5126,"type":"VEC3","min":[-0.014885599724948406,0.014238799922168255,0.011835900135338306],"max":[-0.013158898800611496,0.016248200088739395,0.01391610037535429]},{"bufferView":0,"byteOffset":5438268,"count":402,"componentType":5126,"type":"VEC3","min":[-0.014604199677705765,0.016057699918746948,0.013061599805951118],"max":[-0.014282699674367905,0.017052799463272095,0.013383199460804462]},{"bufferView":0,"byteOffset":5443092,"count":1072,"componentType":5126,"type":"VEC3","min":[-0.01335190050303936,0.020040499046444893,0.012367700226604939],"max":[0.013282500207424164,0.078167498111724854,0.013004599139094353]},{"bufferView":0,"byteOffset":5455956,"count":2936,"componentType":5126,"type":"VEC3","min":[-0.013353899121284485,0.019600499421358109,0.012361999601125717],"max":[0.013284499756991863,0.078607499599456787,0.013006599619984627]},{"bufferView":0,"byteOffset":5491188,"count":776,"componentType":5126,"type":"VEC3","min":[-0.013204400427639484,0.020390501245856285,0.012479498982429504],"max":[0.013135000132024288,0.07781749963760376,0.012857099063694477]},{"bufferView":0,"byteOffset":5500500,"count":960,"componentType":5126,"type":"VEC3","min":[-0.013113399036228657,0.022008098661899567,0.012495700269937515],"max":[0.013043999671936035,0.076199896633625031,0.012766099534928799]},{"bufferView":0,"byteOffset":5512020,"count":31743,"componentType":5126,"type":"VEC3","min":[-0.01269999984651804,0.073654495179653168,-0.00920689944177866],"max":[0.01269999984651804,0.079915896058082581,0.0094751501455903053]},{"bufferView":0,"byteOffset":5892936,"count":2053,"componentType":5126,"type":"VEC3","min":[0.0071283695288002491,0.074937097728252411,0.00866536982357502],"max":[0.011590699665248394,0.079246297478675842,0.00923403911292553]},{"bufferView":1,"byteOffset":0,"count":93834,"componentType":5125,"type":"SCALAR"},{"bufferView":1,"byteOffset":375336,"count":2304,"componentType":5125,"type":"SCALAR"},{"bufferView":1,"byteOffset":384552,"count":17310,"componentType":5125,"type":"SCALAR"},{"bufferView":1,"byteOffset":453792,"count":2880,"componentType":5125,"type":"SCALAR"},{"bufferView":1,"byteOffset":465312,"count":20202,"componentType":5125,"type":"SCALAR"},{"bufferView":1,"byteOffset":546120,"count":5712,"componentType":5125,"type":"SCALAR"},{"bufferView":1,"byteOffset":568968,"count":10092,"componentType":5125,"type":"SCALAR"},{"bufferView":1,"byteOffset":609336,"count":74274,"componentType":5125,"type":"SCALAR"},{"bufferView":1,"byteOffset":906432,"count":114006,"componentType":5125,"type":"SCALAR"},{"bufferView":1,"byteOffset":1362456,"count":252,"componentType":5125,"type":"SCALAR"},{"bufferView":1,"byteOffset":1363464,"count":72,"componentType":5125,"type":"SCALAR"},{"bufferView":1,"byteOffset":1363752,"count":29448,"componentType":5125,"type":"SCALAR"},{"bufferView":1,"byteOffset":1481544,"count":29826,"componentType":5125,"type":"SCALAR"},{"bufferView":1,"byteOffset":1600848,"count":96,"componentType":5125,"type":"SCALAR"},{"bufferView":1,"byteOffset":1601232,"count":7920,"componentType":5125,"type":"SCALAR"},{"bufferView":1,"byteOffset":1632912,"count":96,"componentType":5125,"type":"SCALAR"},{"bufferView":1,"byteOffset":1633296,"count":192,"componentType":5125,"type":"SCALAR"},{"bufferView":1,"byteOffset":1634064,"count":18720,"componentType":5125,"type":"SCALAR"},{"bufferView":1,"byteOffset":1708944,"count":192,"componentType":5125,"type":"SCALAR"},{"bufferView":1,"byteOffset":1709712,"count":120,"componentType":5125,"type":"SCALAR"},{"bufferView":1,"byteOffset":1710192,"count":5976,"componentType":5125,"type":"SCALAR"},{"bufferView":1,"byteOffset":1734096,"count":1032,"componentType":5125,"type":"SCALAR"},{"bufferView":1,"byteOffset":1738224,"count":5220,"componentType":5125,"type":"SCALAR"},{"bufferView":1,"byteOffset":1759104,"count":3060,"componentType":5125,"type":"SCALAR"},{"bufferView":1,"byteOffset":1771344,"count":65400,"componentType":5125,"type":"SCALAR"},{"bufferView":1,"byteOffset":2032944,"count":3456,"componentType":5125,"type":"SCALAR"},{"bufferView":1,"byteOffset":2046768,"count":51456,"componentType":5125,"type":"SCALAR"},{"bufferView":1,"byteOffset":2252592,"count":7200,"componentType":5125,"type":"SCALAR"},{"bufferView":1,"byteOffset":2281392,"count":29136,"componentType":5125,"type":"SCALAR"},{"bufferView":1,"byteOffset":2397936,"count":71964,"componentType":5125,"type":"SCALAR"},{"bufferView":1,"byteOffset":2685792,"count":4872,"componentType":5125,"type":"SCALAR"},{"bufferView":1,"byteOffset":2705280,"count":347448,"componentType":5125,"type":"SCALAR"},{"bufferView":1,"byteOffset":4095072,"count":903000,"componentType":5125,"type":"SCALAR"},{"bufferView":1,"byteOffset":7707072,"count":90852,"componentType":5125,"type":"SCALAR"},{"bufferView":1,"byteOffset":8070480,"count":53724,"componentType":5125,"type":"SCALAR"},{"bufferView":1,"byteOffset":8285376,"count":44496,"componentType":5125,"type":"SCALAR"},{"bufferView":1,"byteOffset":8463360,"count":52110,"componentType":5125,"type":"SCALAR"},{"bufferView":1,"byteOffset":8671800,"count":14496,"componentType":5125,"type":"SCALAR"},{"bufferView":1,"byteOffset":8729784,"count":238074,"componentType":5125,"type":"SCALAR"},{"bufferView":1,"byteOffset":9682080,"count":156,"componentType":5125,"type":"SCALAR"},{"bufferView":1,"byteOffset":9682704,"count":156,"componentType":5125,"type":"SCALAR"},{"bufferView":1,"byteOffset":9683328,"count":69684,"componentType":5125,"type":"SCALAR"},{"bufferView":1,"byteOffset":9962064,"count":161412,"componentType":5125,"type":"SCALAR"},{"bufferView":1,"byteOffset":10607712,"count":25560,"componentType":5125,"type":"SCALAR"},{"bufferView":1,"byteOffset":10709952,"count":25116,"componentType":5125,"type":"SCALAR"},{"bufferView":1,"byteOffset":10810416,"count":9468,"componentType":5125,"type":"SCALAR"},{"bufferView":1,"byteOffset":10848288,"count":4314,"componentType":5125,"type":"SCALAR"},{"bufferView":1,"byteOffset":10865544,"count":4254,"componentType":5125,"type":"SCALAR"},{"bufferView":1,"byteOffset":10882560,"count":2400,"componentType":5125,"type":"SCALAR"},{"bufferView":1,"byteOffset":10892160,"count":6432,"componentType":5125,"type":"SCALAR"},{"bufferView":1,"byteOffset":10917888,"count":17616,"componentType":5125,"type":"SCALAR"},{"bufferView":1,"byteOffset":10988352,"count":3576,"componentType":5125,"type":"SCALAR"},{"bufferView":1,"byteOffset":11002656,"count":4200,"componentType":5125,"type":"SCALAR"},{"bufferView":1,"byteOffset":11019456,"count":191298,"componentType":5125,"type":"SCALAR"},{"bufferView":1,"byteOffset":11784648,"count":12546,"componentType":5125,"type":"SCALAR"}],"bufferViews":[{"buffer":0,"byteOffset":0,"byteLength":5917572,"byteStride":12,"target":34962},{"buffer":0,"byteOffset":5917572,"byteLength":11834832,"target":34963}],"buffers":[{"byteLength":17752404,"uri":"G319.bin"}]}