{"asset":{"generator":"3D Builder","version":"2.0"},"scene":0,"scenes":[{"nodes":[0]}],"nodes":[{"mesh":0,"matrix":[0.24599997699260712,0,0,0,0,0.24599999189376831,-1.1730195126347098E-7,0,0,1.2921972825097328E-7,0.24599994719028473,0,-0.0027871315833181143,0.000458106049336493,-0.064879000186920166,1]}],"meshes":[{"primitives":[{"attributes":{"POSITION":0},"mode":4,"indices":57,"material":0},{"attributes":{"POSITION":1},"mode":4,"indices":58,"material":0},{"attributes":{"POSITION":2},"mode":4,"indices":59,"material":0},{"attributes":{"POSITION":3},"mode":4,"indices":60,"material":0},{"attributes":{"POSITION":4},"mode":4,"indices":61,"material":0},{"attributes":{"POSITION":5},"mode":4,"indices":62,"material":0},{"attributes":{"POSITION":6},"mode":4,"indices":63,"material":0},{"attributes":{"POSITION":7},"mode":4,"indices":64,"material":0},{"attributes":{"POSITION":8},"mode":4,"indices":65,"material":0},{"attributes":{"POSITION":9},"mode":4,"indices":66,"material":0},{"attributes":{"POSITION":10},"mode":4,"indices":67,"material":0},{"attributes":{"POSITION":11},"mode":4,"indices":68,"material":0},{"attributes":{"POSITION":12},"mode":4,"indices":69,"material":0},{"attributes":{"POSITION":13},"mode":4,"indices":70,"material":0},{"attributes":{"POSITION":14},"mode":4,"indices":71,"material":0},{"attributes":{"POSITION":15},"mode":4,"indices":72,"material":0},{"attributes":{"POSITION":16},"mode":4,"indices":73,"material":0},{"attributes":{"POSITION":17},"mode":4,"indices":74,"material":0},{"attributes":{"POSITION":18},"mode":4,"indices":75,"material":0},{"attributes":{"POSITION":19},"mode":4,"indices":76,"material":0},{"attributes":{"POSITION":20},"mode":4,"indices":77,"material":0},{"attributes":{"POSITION":21},"mode":4,"indices":78,"material":0},{"attributes":{"POSITION":22},"mode":4,"indices":79,"material":0},{"attributes":{"POSITION":23},"mode":4,"indices":80,"material":0},{"attributes":{"POSITION":24},"mode":4,"indices":81,"material":0},{"attributes":{"POSITION":25},"mode":4,"indices":82,"material":0},{"attributes":{"POSITION":26},"mode":4,"indices":83,"material":0},{"attributes":{"POSITION":27},"mode":4,"indices":84,"material":0},{"attributes":{"POSITION":28},"mode":4,"indices":85,"material":0},{"attributes":{"POSITION":29},"mode":4,"indices":86,"material":0},{"attributes":{"POSITION":30},"mode":4,"indices":87,"material":0},{"attributes":{"POSITION":31},"mode":4,"indices":88,"material":0},{"attributes":{"POSITION":32},"mode":4,"indices":89,"material":0},{"attributes":{"POSITION":33},"mode":4,"indices":90,"material":0},{"attributes":{"POSITION":34},"mode":4,"indices":91,"material":0},{"attributes":{"POSITION":35},"mode":4,"indices":92,"material":0},{"attributes":{"POSITION":36},"mode":4,"indices":93,"material":0},{"attributes":{"POSITION":37},"mode":4,"indices":94,"material":0},{"attributes":{"POSITION":38},"mode":4,"indices":95,"material":0},{"attributes":{"POSITION":39},"mode":4,"indices":96,"material":0},{"attributes":{"POSITION":40},"mode":4,"indices":97,"material":0},{"attributes":{"POSITION":41},"mode":4,"indices":98,"material":0},{"attributes":{"POSITION":42},"mode":4,"indices":99,"material":0},{"attributes":{"POSITION":43},"mode":4,"indices":100,"material":0},{"attributes":{"POSITION":44},"mode":4,"indices":101,"material":0},{"attributes":{"POSITION":45},"mode":4,"indices":102,"material":0},{"attributes":{"POSITION":46},"mode":4,"indices":103,"material":0},{"attributes":{"POSITION":47},"mode":4,"indices":104,"material":0},{"attributes":{"POSITION":48},"mode":4,"indices":105,"material":0},{"attributes":{"POSITION":49},"mode":4,"indices":106,"material":0},{"attributes":{"POSITION":50},"mode":4,"indices":107,"material":0},{"attributes":{"POSITION":51},"mode":4,"indices":108,"material":0},{"attributes":{"POSITION":52},"mode":4,"indices":109,"material":0},{"attributes":{"POSITION":53},"mode":4,"indices":110,"material":0},{"attributes":{"POSITION":54},"mode":4,"indices":111,"material":0},{"attributes":{"POSITION":55,"COLOR_0":56},"mode":4,"indices":112}]}],"materials":[{"name":"Default","pbrMetallicRoughness":{"baseColorFactor":[0.50288659334182739,0.50288659334182739,0.50288659334182739,1],"metallicFactor":0,"roughnessFactor":1},"alphaMode":"OPAQUE"}],"accessors":[{"bufferView":0,"byteOffset":0,"count":15646,"componentType":5126,"type":"VEC3","min":[-1.5070799589157104,0.27809301018714905,-1.2345399856567383],"max":[1.5070799589157104,8.1857004165649414,1.1862000226974487]},{"bufferView":0,"byteOffset":187752,"count":380,"componentType":5126,"type":"VEC3","min":[-1.4957900047302246,8.1756095886230469,0.87831497192382813],"max":[1.4982399940490723,8.1832504272460937,1.1837500333786011]},{"bufferView":0,"byteOffset":192312,"count":2875,"componentType":5126,"type":"VEC3","min":[-1.4958699941635132,1.6069799661636353,-1.2323700189590454],"max":[1.4958699941635132,8.1738500595092773,-1.1881599426269531]},{"bufferView":0,"byteOffset":226812,"count":472,"componentType":5126,"type":"VEC3","min":[-1.4384000301361084,1.8842799663543701,-1.2323700189590454],"max":[1.4384000301361084,2.0450398921966553,-1.2274999618530273]},{"bufferView":0,"byteOffset":232476,"count":3366,"componentType":5126,"type":"VEC3","min":[-1.3835400342941284,1.93913996219635,-1.2354199886322021],"max":[1.3835400342941284,1.9901800155639648,-1.1731699705123901]},{"bufferView":0,"byteOffset":272868,"count":956,"componentType":5126,"type":"VEC3","min":[-1.3819400072097778,1.940790057182312,-1.2069300413131714],"max":[1.3819400072097778,1.9885300397872925,-1.1687500476837158]},{"bufferView":0,"byteOffset":284340,"count":1684,"componentType":5126,"type":"VEC3","min":[-0.08841560035943985,7.9849996566772461,-1.2383899688720703],"max":[0.08841560035943985,8.1617498397827148,-1.1781100034713745]},{"bufferView":0,"byteOffset":304548,"count":12230,"componentType":5126,"type":"VEC3","min":[-1.3664200305938721,1.7613500356674194,1.0671600103378296],"max":[1.3664200305938721,8.0549402236938477,1.1925499439239502]},{"bufferView":0,"byteOffset":451308,"count":18976,"componentType":5126,"type":"VEC3","min":[-1.323390007019043,1.8004798889160156,-1.0222599506378174],"max":[1.323390007019043,8.0100002288818359,1.1121699810028076]},{"bufferView":0,"byteOffset":679020,"count":48,"componentType":5126,"type":"VEC3","min":[-1.0933400392532349,7.9907498359680176,-0.77469497919082642],"max":[1.175529956817627,7.9956192970275879,0.92730498313903809]},{"bufferView":0,"byteOffset":679596,"count":16,"componentType":5126,"type":"VEC3","min":[-0.940621018409729,7.9907498359680176,-0.97563999891281128],"max":[1.0228099822998047,7.9956192970275879,-0.17186200618743896]},{"bufferView":0,"byteOffset":679788,"count":4908,"componentType":5126,"type":"VEC3","min":[-0.0542152002453804,7.2266302108764648,-1.1450399160385132],"max":[0.0542152002453804,7.4234700202941895,-1.012410044670105]},{"bufferView":0,"byteOffset":738684,"count":4882,"componentType":5126,"type":"VEC3","min":[-1.5010600090026855,0.28054499626159668,-1.2231199741363525],"max":[1.5010600090026855,1.606779932975769,1.1801700592041016]},{"bufferView":0,"byteOffset":797268,"count":16,"componentType":5126,"type":"VEC3","min":[-1.4990500211715698,1.606779932975769,1.103410005569458],"max":[1.4990500211715698,1.6835399866104126,1.1801700592041016]},{"bufferView":0,"byteOffset":797460,"count":1320,"componentType":5126,"type":"VEC3","min":[-1.4972399473190308,0.28359898924827576,1.1038099527359009],"max":[1.4972399473190308,1.6058100461959839,1.1801700592041016]},{"bufferView":0,"byteOffset":813300,"count":16,"componentType":5126,"type":"VEC3","min":[-1.3945499658584595,1.606779932975769,-1.2231199741363525],"max":[1.3945499658584595,1.6835399866104126,-1.1463600397109985]},{"bufferView":0,"byteOffset":813492,"count":32,"componentType":5126,"type":"VEC3","min":[-1.3951599597930908,0.28359898924827576,-1.2231199741363525],"max":[1.3951599597930908,1.6058100461959839,-1.1463600397109985]},{"bufferView":0,"byteOffset":813876,"count":3104,"componentType":5126,"type":"VEC3","min":[-1.4408700466156006,0.20418599247932434,-1.2231199741363525],"max":[1.4408700466156006,0.28054499626159668,1.1801700592041016]},{"bufferView":0,"byteOffset":851124,"count":32,"componentType":5126,"type":"VEC3","min":[-1.2599200010299683,0.20378400385379791,-0.82123398780822754],"max":[1.2599200010299683,0.28054499626159668,0.778283953666687]},{"bufferView":0,"byteOffset":851508,"count":24,"componentType":5126,"type":"VEC3","min":[1.3183999061584473,0.38101699948310852,-0.37915599346160889],"max":[1.3214499950408936,1.0240399837493896,0.32816898822784424]},{"bufferView":0,"byteOffset":851796,"count":1000,"componentType":5126,"type":"VEC3","min":[-0.95364201068878174,0.28054499626159668,-1.2231199741363525],"max":[0.41109201312065125,0.3565019965171814,1.1801700592041016]},{"bufferView":0,"byteOffset":863796,"count":176,"componentType":5126,"type":"VEC3","min":[-1.4923698902130127,1.3646800518035889,1.1089999675750732],"max":[1.4923698902130127,1.6058100461959839,1.1753100156784058]},{"bufferView":0,"byteOffset":865908,"count":868,"componentType":5126,"type":"VEC3","min":[-1.4399700164794922,0.19654999673366547,-1.2311599254608154],"max":[1.441580057144165,0.25683298707008362,-0.98198997974395752]},{"bufferView":0,"byteOffset":876324,"count":506,"componentType":5126,"type":"VEC3","min":[-1.3362799882888794,1.60371994972229,1.1095999479293823],"max":[1.3362799882888794,1.7876299619674683,1.1862000226974487]},{"bufferView":0,"byteOffset":882396,"count":10900,"componentType":5126,"type":"VEC3","min":[-1.3887300491333008,0.19514299929141998,-1.1437499523162842],"max":[1.3887300491333008,0.28355899453163147,1.1008000373840332]},{"bufferView":0,"byteOffset":1013196,"count":580,"componentType":5126,"type":"VEC3","min":[-1.496229887008667,0.28054499626159668,-1.2323700189590454],"max":[1.496229887008667,1.5866800546646118,-1.1519900560379028]},{"bufferView":0,"byteOffset":1020156,"count":8576,"componentType":5126,"type":"VEC3","min":[-0.076319694519042969,1.5381799936294556,-0.880636990070343],"max":[0.076319694519042969,1.8194999694824219,-0.72791898250579834]},{"bufferView":0,"byteOffset":1123068,"count":1200,"componentType":5126,"type":"VEC3","min":[-1.4216799736022949,0.14912700653076172,-1.1766699552536011],"max":[1.4216799736022949,0.16037999093532562,1.13372004032135]},{"bufferView":0,"byteOffset":1137468,"count":4804,"componentType":5126,"type":"VEC3","min":[-1.3023200035095215,1.8215600252151489,-1.0222599506378174],"max":[1.3023200035095215,7.60875940322876,-0.83256697654724121]},{"bufferView":0,"byteOffset":1195116,"count":12006,"componentType":5126,"type":"VEC3","min":[-1.152459979057312,7.9507598876953125,-0.21293999254703522],"max":[1.1685299873352051,8.0789699554443359,0.85807901620864868]},{"bufferView":0,"byteOffset":1339188,"count":764,"componentType":5126,"type":"VEC3","min":[-1.5051599740982056,8.1326503753662109,0.93633902072906494],"max":[-1.278749942779541,8.2291097640991211,1.3991700410842896]},{"bufferView":0,"byteOffset":1348356,"count":57100,"componentType":5126,"type":"VEC3","min":[-1.3023200035095215,1.8448699712753296,-0.58540499210357666],"max":[1.3153200149536133,6.6635198593139648,0.8469269871711731]},{"bufferView":0,"byteOffset":2033556,"count":151030,"componentType":5126,"type":"VEC3","min":[-1.2672200202941895,1.827319860458374,-0.89455902576446533],"max":[1.264680027961731,6.3354401588439941,1.1028300523757935]},{"bufferView":0,"byteOffset":3845916,"count":15580,"componentType":5126,"type":"VEC3","min":[-1.4851800203323364,-0.0018626400269567966,0.93003702163696289],"max":[1.4867898225784302,0.20109099149703979,1.1972099542617798]},{"bufferView":0,"byteOffset":4032876,"count":9381,"componentType":5126,"type":"VEC3","min":[-1.4741300344467163,0.022250700742006302,0.94104897975921631],"max":[1.4757399559020996,0.21917599439620972,1.1862000226974487]},{"bufferView":0,"byteOffset":4145448,"count":7416,"componentType":5126,"type":"VEC3","min":[-1.500249981880188,0.055486999452114105,-1.2552399635314941],"max":[1.5018600225448608,0.20418599247932434,-0.95791500806808472]},{"bufferView":0,"byteOffset":4234440,"count":8687,"componentType":5126,"type":"VEC3","min":[1.3843799829483032,4.4456796646118164,1.2501800060272217],"max":[1.5322699546813965,5.3298401832580566,1.4283299446105957]},{"bufferView":0,"byteOffset":4338684,"count":2424,"componentType":5126,"type":"VEC3","min":[1.4780199527740479,2.0518698692321777,1.2630300521850586],"max":[1.5322699546813965,2.9103100299835205,1.3759599924087524]},{"bufferView":0,"byteOffset":4367772,"count":38519,"componentType":5126,"type":"VEC3","min":[-1.5046299695968628,0.28598299622535706,1.1855800151824951],"max":[1.5095399618148804,8.1857004165649414,1.4482599496841431]},{"bufferView":0,"byteOffset":4830000,"count":28,"componentType":5126,"type":"VEC3","min":[-1.355929970741272,1.8197799921035767,1.3087799549102783],"max":[1.3608399629592896,8.0369997024536133,1.32082998752594]},{"bufferView":0,"byteOffset":4830336,"count":28,"componentType":5126,"type":"VEC3","min":[-1.355929970741272,0.37790799140930176,0.99049597978591919],"max":[1.3608399629592896,1.5239700078964233,1.0025500059127808]},{"bufferView":0,"byteOffset":4830672,"count":11820,"componentType":5126,"type":"VEC3","min":[-1.3909000158309937,1.7848199605941772,1.2249799966812134],"max":[1.395799994468689,8.0719699859619141,1.3154100179672241]},{"bufferView":0,"byteOffset":4972512,"count":26888,"componentType":5126,"type":"VEC3","min":[-1.5016200542449951,1.6741000413894653,1.1841000318527222],"max":[1.5065199136734009,8.1826896667480469,1.246479868888855]},{"bufferView":0,"byteOffset":5295168,"count":4254,"componentType":5126,"type":"VEC3","min":[-1.5006099939346313,1.6429500579833984,1.2629599571228027],"max":[-1.2072299718856812,1.7221200466156006,1.3815199136734009]},{"bufferView":0,"byteOffset":5346216,"count":4182,"componentType":5126,"type":"VEC3","min":[-1.5086499452590942,8.1346597671508789,1.2629599571228027],"max":[-1.2152700424194336,8.2138290405273437,1.3815199136734009]},{"bufferView":0,"byteOffset":5396400,"count":1644,"componentType":5126,"type":"VEC3","min":[-1.4320900440216064,1.7741700410842896,1.2231799364089966],"max":[1.4369900226593018,8.0826196670532227,1.2472900152206421]},{"bufferView":0,"byteOffset":5416128,"count":738,"componentType":5126,"type":"VEC3","min":[-1.41621994972229,1.7436199188232422,1.2231799364089966],"max":[1.4211200475692749,8.1131601333618164,1.2472900152206421]},{"bufferView":0,"byteOffset":5424984,"count":703,"componentType":5126,"type":"VEC3","min":[-1.4885598421096802,1.4238799810409546,1.1835900545120239],"max":[-1.3158899545669556,1.6248199939727783,1.3916100263595581]},{"bufferView":0,"byteOffset":5433420,"count":402,"componentType":5126,"type":"VEC3","min":[-1.46042001247406,1.6057699918746948,1.3061599731445312],"max":[-1.4282699823379517,1.70527982711792,1.3383200168609619]},{"bufferView":0,"byteOffset":5438244,"count":1072,"componentType":5126,"type":"VEC3","min":[-1.3351900577545166,2.0040500164031982,1.2367699146270752],"max":[1.3282500505447388,7.8167500495910645,1.3004599809646606]},{"bufferView":0,"byteOffset":5451108,"count":2936,"componentType":5126,"type":"VEC3","min":[-1.3353899717330933,1.9600499868392944,1.2361999750137329],"max":[1.3284498453140259,7.8607497215271,1.3006600141525269]},{"bufferView":0,"byteOffset":5486340,"count":776,"componentType":5126,"type":"VEC3","min":[-1.3204400539398193,2.0390501022338867,1.2479498386383057],"max":[1.3135000467300415,7.7817497253417969,1.2857098579406738]},{"bufferView":0,"byteOffset":5495652,"count":960,"componentType":5126,"type":"VEC3","min":[-1.3113398551940918,2.2008099555969238,1.2495700120925903],"max":[1.3043999671936035,7.6199893951416016,1.2766100168228149]},{"bufferView":0,"byteOffset":5507172,"count":31743,"componentType":5126,"type":"VEC3","min":[-1.2699999809265137,7.36544942855835,-0.92069000005722046],"max":[1.2699999809265137,7.9915895462036133,0.94751501083374023]},{"bufferView":0,"byteOffset":5888088,"count":2053,"componentType":5126,"type":"VEC3","min":[0.71283692121505737,7.4937100410461426,0.86653697490692139],"max":[1.1590700149536133,7.9246301651000977,0.92340397834777832]},{"bufferView":0,"byteOffset":5912724,"count":3979,"componentType":5126,"type":"VEC3","min":[-1.5070799589157104,0.010026800446212292,-1.2323700189590454],"max":[1.528249979019165,8.22677993774414,1.4283299446105957]},{"bufferView":1,"byteOffset":0,"count":3979,"componentType":5121,"type":"VEC4","normalized":true},{"bufferView":2,"byteOffset":0,"count":92754,"componentType":5125,"type":"SCALAR"},{"bufferView":2,"byteOffset":371016,"count":2304,"componentType":5125,"type":"SCALAR"},{"bufferView":2,"byteOffset":380232,"count":16299,"componentType":5125,"type":"SCALAR"},{"bufferView":2,"byteOffset":445428,"count":2880,"componentType":5125,"type":"SCALAR"},{"bufferView":2,"byteOffset":456948,"count":20202,"componentType":5125,"type":"SCALAR"},{"bufferView":2,"byteOffset":537756,"count":5712,"componentType":5125,"type":"SCALAR"},{"bufferView":2,"byteOffset":560604,"count":10092,"componentType":5125,"type":"SCALAR"},{"bufferView":2,"byteOffset":600972,"count":74274,"componentType":5125,"type":"SCALAR"},{"bufferView":2,"byteOffset":898068,"count":114006,"componentType":5125,"type":"SCALAR"},{"bufferView":2,"byteOffset":1354092,"count":252,"componentType":5125,"type":"SCALAR"},{"bufferView":2,"byteOffset":1355100,"count":72,"componentType":5125,"type":"SCALAR"},{"bufferView":2,"byteOffset":1355388,"count":29448,"componentType":5125,"type":"SCALAR"},{"bufferView":2,"byteOffset":1473180,"count":26748,"componentType":5125,"type":"SCALAR"},{"bufferView":2,"byteOffset":1580172,"count":96,"componentType":5125,"type":"SCALAR"},{"bufferView":2,"byteOffset":1580556,"count":7920,"componentType":5125,"type":"SCALAR"},{"bufferView":2,"byteOffset":1612236,"count":96,"componentType":5125,"type":"SCALAR"},{"bufferView":2,"byteOffset":1612620,"count":192,"componentType":5125,"type":"SCALAR"},{"bufferView":2,"byteOffset":1613388,"count":18720,"componentType":5125,"type":"SCALAR"},{"bufferView":2,"byteOffset":1688268,"count":192,"componentType":5125,"type":"SCALAR"},{"bufferView":2,"byteOffset":1689036,"count":120,"componentType":5125,"type":"SCALAR"},{"bufferView":2,"byteOffset":1689516,"count":5976,"componentType":5125,"type":"SCALAR"},{"bufferView":2,"byteOffset":1713420,"count":1032,"componentType":5125,"type":"SCALAR"},{"bufferView":2,"byteOffset":1717548,"count":5220,"componentType":5125,"type":"SCALAR"},{"bufferView":2,"byteOffset":1738428,"count":3060,"componentType":5125,"type":"SCALAR"},{"bufferView":2,"byteOffset":1750668,"count":65400,"componentType":5125,"type":"SCALAR"},{"bufferView":2,"byteOffset":2012268,"count":3360,"componentType":5125,"type":"SCALAR"},{"bufferView":2,"byteOffset":2025708,"count":51456,"componentType":5125,"type":"SCALAR"},{"bufferView":2,"byteOffset":2231532,"count":7200,"componentType":5125,"type":"SCALAR"},{"bufferView":2,"byteOffset":2260332,"count":29136,"componentType":5125,"type":"SCALAR"},{"bufferView":2,"byteOffset":2376876,"count":71964,"componentType":5125,"type":"SCALAR"},{"bufferView":2,"byteOffset":2664732,"count":4056,"componentType":5125,"type":"SCALAR"},{"bufferView":2,"byteOffset":2680956,"count":347448,"componentType":5125,"type":"SCALAR"},{"bufferView":2,"byteOffset":4070748,"count":903000,"componentType":5125,"type":"SCALAR"},{"bufferView":2,"byteOffset":7682748,"count":90759,"componentType":5125,"type":"SCALAR"},{"bufferView":2,"byteOffset":8045784,"count":52548,"componentType":5125,"type":"SCALAR"},{"bufferView":2,"byteOffset":8255976,"count":44496,"componentType":5125,"type":"SCALAR"},{"bufferView":2,"byteOffset":8433960,"count":50841,"componentType":5125,"type":"SCALAR"},{"bufferView":2,"byteOffset":8637324,"count":14496,"componentType":5125,"type":"SCALAR"},{"bufferView":2,"byteOffset":8695308,"count":233811,"componentType":5125,"type":"SCALAR"},{"bufferView":2,"byteOffset":9630552,"count":156,"componentType":5125,"type":"SCALAR"},{"bufferView":2,"byteOffset":9631176,"count":120,"componentType":5125,"type":"SCALAR"},{"bufferView":2,"byteOffset":9631656,"count":69684,"componentType":5125,"type":"SCALAR"},{"bufferView":2,"byteOffset":9910392,"count":161412,"componentType":5125,"type":"SCALAR"},{"bufferView":2,"byteOffset":10556040,"count":25560,"componentType":5125,"type":"SCALAR"},{"bufferView":2,"byteOffset":10658280,"count":24576,"componentType":5125,"type":"SCALAR"},{"bufferView":2,"byteOffset":10756584,"count":9468,"componentType":5125,"type":"SCALAR"},{"bufferView":2,"byteOffset":10794456,"count":4314,"componentType":5125,"type":"SCALAR"},{"bufferView":2,"byteOffset":10811712,"count":4254,"componentType":5125,"type":"SCALAR"},{"bufferView":2,"byteOffset":10828728,"count":2400,"componentType":5125,"type":"SCALAR"},{"bufferView":2,"byteOffset":10838328,"count":6432,"componentType":5125,"type":"SCALAR"},{"bufferView":2,"byteOffset":10864056,"count":17616,"componentType":5125,"type":"SCALAR"},{"bufferView":2,"byteOffset":10934520,"count":3576,"componentType":5125,"type":"SCALAR"},{"bufferView":2,"byteOffset":10948824,"count":4200,"componentType":5125,"type":"SCALAR"},{"bufferView":2,"byteOffset":10965624,"count":191298,"componentType":5125,"type":"SCALAR"},{"bufferView":2,"byteOffset":11730816,"count":12546,"componentType":5125,"type":"SCALAR"},{"bufferView":2,"byteOffset":11781000,"count":13458,"componentType":5125,"type":"SCALAR"}],"bufferViews":[{"buffer":0,"byteOffset":0,"byteLength":5960472,"byteStride":12,"target":34962},{"buffer":0,"byteOffset":5960472,"byteLength":15916,"byteStride":4,"target":34962},{"buffer":0,"byteOffset":5976388,"byteLength":11834832,"target":34963}],"buffers":[{"byteLength":17811220,"uri":"G3192.bin"}]}